Coordinates
version=1
nRows=21
nColumns=22
inDegrees=yes

Units are S.I. units (second, meters, Newtons, ...)
If the header above contains a line with 'inDegrees', this indicates whether rotational values are in degrees (yes) or radians (no).

endheader
time	pelvis_tilt	pelvis_list	pelvis_rotation	pelvis_tx	pelvis_ty	pelvis_tz	hip_flexion_r	hip_adduction_r	hip_rotation_r	knee_angle_r	ankle_angle_r	subtalar_angle_r	hip_flexion_l	hip_adduction_l	hip_rotation_l	knee_angle_l	ankle_angle_l	subtalar_angle_l	lumbar_extension	lumbar_bending	lumbar_rotation
      4.45000000	     -1.96996336	     -5.08818266	     82.82472964	      0.31294282	      0.87337612	     -0.44013859	     22.17634754	     -5.21154690	     -0.67949903	    -27.05259570	     13.18805022	      0.07328635	     17.28214383	     -7.65173019	      2.22272925	    -59.59613782	      7.96783357	      8.47450389	     -4.06792489	     -0.26639378	     14.36898818
      4.46000000	     -2.01718288	     -5.04330475	     82.68316768	      0.31584677	      0.87451932	     -0.44307186	     21.66073256	     -5.05316280	     -0.66632358	    -26.58105804	     13.21428808	     -0.02124007	     18.06529582	     -7.73903669	      1.05538073	    -59.54098413	      8.57819587	      7.55700641	     -4.10032592	     -0.29953657	     14.85545155
      4.47000000	     -2.07054124	     -5.00641063	     82.55568225	      0.31852878	      0.87565005	     -0.44595024	     21.14550240	     -4.92690439	     -0.68330917	    -26.08590831	     13.22630781	     -0.09044091	     18.76866755	     -7.75065974	      0.01585478	    -59.27580742	      9.15702681	      6.86816490	     -4.11396074	     -0.33138773	     15.28649795
      4.48000000	     -2.11989897	     -4.99019722	     82.44075521	      0.32101821	      0.87673757	     -0.44878864	     20.64525842	     -4.81530264	     -0.72015011	    -25.57401687	     13.21785738	     -0.11148484	     19.40726338	     -7.71148908	     -0.90492211	    -58.81097104	      9.70706992	      6.56532814	     -4.09044661	     -0.34852014	     15.66700661
      4.49000000	     -2.19321513	     -4.97298506	     82.36867727	      0.32323560	      0.87782669	     -0.45159133	     20.11695193	     -4.76265322	     -0.79175078	    -25.00813440	     13.20741536	     -0.14074716	     19.97165741	     -7.55862470	     -1.65428479	    -58.15278094	     10.21376574	      6.20540388	     -4.05877568	     -0.38374804	     15.98166241
      4.50000000	     -2.27352772	     -4.98369151	     82.33270668	      0.32523604	      0.87883720	     -0.45435447	     19.62348117	     -4.74090368	     -0.90414454	    -24.45258859	     13.17469114	     -0.14648231	     20.49179010	     -7.34352367	     -2.26387301	    -57.31567149	     10.74088854	      6.01940498	     -3.98572077	     -0.41435948	     16.18697223
      4.51000000	     -2.35708738	     -4.99155460	     82.32158301	      0.32708127	      0.87983788	     -0.45710237	     19.11332770	     -4.73791922	     -1.02648317	    -23.87385445	     13.14913634	     -0.14061123	     20.92349369	     -7.06814429	     -2.72220224	    -56.29397787	     11.22868442	      5.84456878	     -3.90566224	     -0.45238266	     16.35891377
      4.52000000	     -2.44375606	     -5.00860101	     82.33220765	      0.32876305	      0.88078804	     -0.45980445	     18.61017360	     -4.75259337	     -1.16684521	    -23.28650108	     13.13031170	     -0.12220873	     21.29488059	     -6.74719448	     -3.03997240	    -55.12070377	     11.70113349	      5.69064102	     -3.81339809	     -0.49064294	     16.48015879
      4.53000000	     -2.52990756	     -5.04254820	     82.35605420	      0.33035222	      0.88166488	     -0.46245370	     18.13254078	     -4.76980503	     -1.30834202	    -22.70879082	     13.10501970	     -0.10140963	     21.61329473	     -6.40725930	     -3.23721513	    -53.81025155	     12.17110323	      5.56201145	     -3.70011986	     -0.53390117	     16.55590323
      4.54000000	     -2.61538867	     -5.08620110	     82.37856430	      0.33187564	      0.88247689	     -0.46506536	     17.67706673	     -4.78780933	     -1.45054949	    -22.14546951	     13.06876185	     -0.08792302	     21.86744875	     -6.06593626	     -3.34627003	    -52.37502848	     12.62736478	      5.45051242	     -3.57234742	     -0.58334109	     16.60280720
      4.55000000	     -2.69341736	     -5.12969379	     82.39130666	      0.33335233	      0.88324132	     -0.46764434	     17.22597821	     -4.79389108	     -1.56050199	    -21.58463260	     13.04394054	     -0.08371635	     22.04379511	     -5.73675590	     -3.37567435	    -50.82689307	     13.03716694	      5.34872920	     -3.44295945	     -0.63308139	     16.64488959
      4.56000000	     -2.75945360	     -5.16956039	     82.38192451	      0.33482295	      0.88395437	     -0.47019223	     16.77640942	     -4.77915801	     -1.62835578	    -21.02506586	     13.03313086	     -0.09228962	     22.14077263	     -5.44789775	     -3.37221802	    -49.18853030	     13.39298086	      5.26505041	     -3.31511803	     -0.68003427	     16.67967821
      4.57000000	     -2.81480489	     -5.22144093	     82.34116541	      0.33631087	      0.88458479	     -0.47269843	     16.36610082	     -4.74325359	     -1.67814690	    -20.49897167	     12.98671071	     -0.11762078	     22.17860235	     -5.20892164	     -3.35887787	    -47.48174583	     13.70725712	      5.21705375	     -3.17112082	     -0.72844771	     16.73375002
      4.58000000	     -2.85078562	     -5.26848027	     82.26468265	      0.33780632	      0.88515731	     -0.47518943	     15.95861048	     -4.67705754	     -1.67521917	    -19.97889730	     12.95023461	     -0.15594478	     22.14193713	     -5.03370226	     -3.36910449	    -45.73121151	     13.98244459	      5.16301744	     -3.02765819	     -0.76248351	     16.79589766
      4.59000000	     -2.86653315	     -5.31320675	     82.15262783	      0.33932389	      0.88565909	     -0.47766356	     15.55736715	     -4.57969047	     -1.62744917	    -19.46702662	     12.93482437	     -0.20763587	     22.04337841	     -4.92433842	     -3.41783399	    -43.96744862	     14.24833922	      5.05788824	     -2.88175871	     -0.78509317	     16.85656140
      4.60000000	     -2.86523623	     -5.36163956	     81.99911107	      0.34085220	      0.88608575	     -0.48010454	     15.18818338	     -4.45651386	     -1.54727451	    -18.99317503	     12.89346462	     -0.26253801	     21.89269774	     -4.87057040	     -3.50654830	    -42.20494479	     14.52094352	      4.88243602	     -2.72606675	     -0.79678250	     16.94355498
      4.61000000	     -2.84579163	     -5.41054240	     81.81194562	      0.34236972	      0.88643301	     -0.48251851	     14.83650754	     -4.30982424	     -1.43438720	    -18.54133088	     12.86175421	     -0.31847572	     21.69589753	     -4.86556091	     -3.63269743	    -40.47102062	     14.81392089	      4.62749348	     -2.56442834	     -0.79548233	     17.03370098
      4.62000000	     -2.80987464	     -5.45767522	     81.59739237	      0.34385100	      0.88670849	     -0.48491305	     14.49991192	     -4.14617954	     -1.29463438	    -18.11580684	     12.84084136	     -0.37407361	     21.45388307	     -4.89627192	     -3.78386523	    -38.77673205	     15.11820099	      4.30250741	     -2.39722989	     -0.77766719	     17.11629215
      4.63000000	     -2.75737897	     -5.50639894	     81.36535904	      0.34527933	      0.88690201	     -0.48727589	     14.18136742	     -3.96829336	     -1.14160898	    -17.71720545	     12.83840335	     -0.42773239	     21.17683079	     -4.95057570	     -3.92750424	    -37.13573625	     15.41302443	      3.92658691	     -2.22318895	     -0.74601289	     17.18503240
      4.64000000	     -2.68669254	     -5.56738988	     81.11301166	      0.34667024	      0.88699575	     -0.48958669	     13.89753951	     -3.77148953	     -0.97866676	    -17.35191833	     12.83598974	     -0.47026296	     20.88180080	     -5.02770808	     -4.04579465	    -35.56299451	     15.67210831	      3.57388432	     -2.03143844	     -0.69826120	     17.24375109
      4.65000000	     -2.59750432	     -5.63306975	     80.85423141	      0.34797822	      0.88700004	     -0.49184858	     13.63444083	     -3.56172352	     -0.81407321	    -17.01492493	     12.85343738	     -0.50828242	     20.56478801	     -5.11185642	     -4.10372586	    -34.06280493	     15.86499357	      3.23465668	     -1.83350572	     -0.62828085	     17.27264951
